<?xml version="1.0" standalone="no"?>
<!DOCTYPE svg PUBLIC "-//W3C//DTD SVG 20010904//EN"
 "http://www.w3.org/TR/2001/REC-SVG-20010904/DTD/svg10.dtd">
<svg version="1.0" xmlns="http://www.w3.org/2000/svg"
 width="176.000000pt" height="44.000000pt" viewBox="0 0 176.000000 44.000000"
 preserveAspectRatio="xMidYMid meet">

<g transform="translate(0.000000,44.000000) scale(0.100000,-0.100000)"
fill="#000000" stroke="none">
<path d="M207 426 c-57 -21 -103 -61 -127 -111 -31 -64 -25 -156 13 -214 31
-46 86 -86 135 -96 31 -6 32 -6 32 27 0 30 -5 36 -42 53 -59 27 -88 74 -88
141 0 59 27 102 83 130 38 20 109 14 146 -13 90 -68 82 -212 -14 -257 -30 -15
-35 -22 -35 -52 l0 -34 38 15 c59 25 81 43 113 93 24 38 29 57 29 106 0 158
-140 263 -283 212z"/>
<path d="M550 220 l0 -210 35 0 35 0 0 75 0 75 58 0 c82 0 131 36 147 107 15
72 -40 150 -114 160 -40 6 -41 5 -41 -25 0 -26 5 -31 29 -37 39 -8 55 -29 55
-72 0 -48 -31 -73 -90 -73 l-44 0 0 105 0 105 -35 0 -35 0 0 -210z"/>
<path d="M880 220 l0 -210 35 0 34 0 3 147 3 146 110 -146 c102 -136 112 -147
143 -147 22 0 32 5 32 15 0 9 -66 103 -147 210 -139 183 -150 195 -180 195
l-33 0 0 -210z"/>
<path d="M1356 363 c26 -38 60 -85 76 -106 l27 -39 -68 -91 c-92 -126 -89
-117 -43 -117 37 0 42 4 93 75 29 41 54 75 54 75 0 0 25 -34 54 -75 51 -72 56
-75 93 -75 l40 0 -46 65 c-255 365 -247 355 -289 355 l-39 0 48 -67z"/>
<path d="M1579 388 c-50 -69 -55 -85 -34 -108 22 -24 21 -25 94 78 l51 72 -40
0 c-35 0 -43 -5 -71 -42z"/>
<path d="M1170 314 c0 -103 1 -107 32 -150 17 -24 33 -44 35 -44 2 0 3 68 3
150 l0 150 -35 0 -35 0 0 -106z"/>
</g>
</svg>
